Patient4_TMGait_0pt4_01_right_29_EMG.mot
version=1
nRows=36
nColumns=33
inDegrees=no
endheader
time	1LAddLong	2LGlutMax	3LGlutMed	4LIliopsoas	5LSemiMemb	6LBicFemLong	7LRecFem	8LVastMed	9LVastLat	10LGasMed	11LTibAnt	12lTibPost	13LPeroneusLong	14LSol	15LExtDigLong	16LFlexDigLong	17RAddLong	18RGlutMax	19RGlutMed	20RIliopsoas	21RSemiMemb	22RBicFemLong	23RRecFem	24RVastMed	25RVastLat	26RGasMed	27RTibAnt	28RTibPost	29RPeroneusLong	30RSol	31RExtDigLong	32RFlexDigLong
38.828	0.009308	-0.042419	-0.018311	-0.027924	0.021973	0.01236	0.021362	-0.004425	-0.000916	-0.063782	-0.1294	0.006409	0.38437	-0.065002	-0.38147	0.00351	-0.064087	-0.12497	-0.25589	-0.21774	-0.21378	0.23209	-0.11627	0.090179	0.022278	0.029297	0.15472	-0.001068	-0.53909	0.026703	-0.003662	0.00351
38.829	0.003967	-0.031891	0.052338	-0.008087	0.005951	0.01236	0.030212	-0.016022	0.02533	-0.058899	0.038147	0.00946	-0.43701	-0.14358	-0.073547	-0.00885	-0.082855	-0.073395	-0.31494	-0.059357	0.13489	0.2356	-0.11307	0.069733	0.016937	0.027008	0.15915	-0.000458	-0.39108	-0.021667	-0.001373	0.001373
38.83	0.003357	0.02121	0.008392	0.006866	0.013428	0.035248	0.007324	-0.023651	0.04837	-0.033875	0.014496	0.005951	-0.30212	-0.028839	-0.4718	-0.029144	-0.068665	0.010223	-0.24155	0.17624	0.078888	0.17471	-0.11475	0.026245	-0.009613	0.025024	0.10071	-0.003204	-0.024872	0.000916	-0.006561	0.006104
38.831	0.005798	-0.033569	-0.028076	-0.000458	0.011292	0.028534	-0.014191	-0.016174	0.040894	0.006104	-0.064087	0.002899	-0.23972	-0.001831	-0.17593	-0.023041	-0.041809	-0.038757	0.17578	0.41321	0.001068	0.16647	-0.098572	-0.014343	0.005493	0.029297	0.13046	-0.003662	0.074921	-0.024872	0.001678	0.00473
38.832	0.00824	-0.037537	0.11978	0.029755	0.010529	0.001678	-0.015717	-0.014648	0.044556	0.023651	-0.027771	-0.004272	-0.11932	0.003357	-0.1622	-0.005951	-0.027924	-0.044403	-0.11841	0.30151	0.028381	0.16388	-0.05249	-0.034943	0	0.016937	0.04425	-0.005951	0.044708	-0.007782	-0.001678	-0.010223
38.833	0.003204	-0.053101	0.035858	0.00946	0.009155	-0.015564	0.053253	0.006866	0.026398	-0.027618	0.039215	0.003815	-0.036621	-0.076294	0.10757	-0.000763	-0.017853	-0.016479	0.40161	0.062561	0.018768	0.17456	-0.075378	-0.016785	-0.012665	0.013885	0.10513	-0.008087	-0.087585	0.057983	-0.000916	-0.007324
38.834	0.010071	-0.027618	-0.071716	-0.029755	0.006866	-0.006409	0.048828	0.000763	0.048218	-0.068512	0.086975	0.001831	-0.33798	-0.036926	0.087891	0.002289	-0.00885	-0.02182	0.90164	-0.053864	0.011444	0.18127	-0.11978	-0.012817	0.008087	0.004425	0.13947	-0.007172	-0.22003	0.085297	0.00061	-0.002136
38.835	0.007172	-0.088043	0.029755	-0.030212	0.014191	-0.003357	0.035706	0.006561	-0.010529	-0.045013	0.028687	-0.002289	-0.23682	-0.016785	0.057831	-0.005798	-0.005493	-0.07782	0.52155	-0.084229	0.003967	0.19455	-0.10986	-0.036163	0.003662	0.005798	0.075836	-0.00473	-0.24399	0.081787	-0.001678	-0.009003
38.836	0.006256	-0.045166	0.032196	-0.010071	0.013733	0.008087	-0.023804	0.004883	-0.044556	-0.007477	0.005951	-0.004578	-0.12924	-0.007324	-0.08316	0.001831	0.000153	-0.068665	0.16953	-0.001526	0.000153	0.22827	-0.12192	-0.024261	-0.001678	0.001984	0.10559	-0.008545	-0.24109	0.015564	-0.000916	-0.014191
38.837	0.014496	-0.062103	0.072937	-0.046844	0.01297	-0.013428	-0.076447	0.003967	0.023804	0.002136	-0.035706	-0.003662	0.079651	-0.20813	-0.018463	0.003357	-0.003662	-0.054626	0.080872	-0.053711	0.001678	0.2945	-0.12131	-0.003357	0.008545	-0.002899	-0.011444	-0.002136	-0.32349	-0.009155	-0.001678	-0.011139
38.838	0.011597	-0.04715	0.076904	-0.023651	0.007782	-0.018616	-0.058441	0.002136	0.078735	-0.001373	-0.01236	-0.000458	0.21286	-0.1503	0.014801	-0.000916	-0.007782	-0.071106	-0.26062	-0.074615	-0.009308	0.36194	-0.085907	0.03067	0.006256	0.000763	-0.18631	-0.004272	0.1503	-0.04425	0.001221	-0.01358
38.839	0.000305	-0.056152	0.092926	-0.015259	0.013733	-0.00946	0.013428	-0.006256	0.090942	-0.013733	-0.042725	0.003052	0.2005	-0.032349	0.036926	0.004425	0.019836	-0.043793	-0.35233	0.007935	-0.009918	0.42679	-0.063324	0.007629	-0.000763	-0.002594	-0.12756	-0.005341	0.1387	-0.056458	0.000916	-0.012817
38.84	-0.00473	-0.054779	0.08728	0.002747	-0.000153	-0.003967	0.03479	-0.003357	0.038452	-0.020905	-0.012512	-0.008698	-0.20065	0.03006	0.14847	0.003052	0.014954	-0.053101	-0.23758	0.005341	-0.049438	0.49561	-0.11169	-0.037842	0.004425	-0.00885	-0.078888	-0.010223	0.14465	-0.033417	0.001831	-0.006409
38.841	-0.00946	-0.014801	0.021362	0.010986	0.009766	0.00885	0.062561	-0.007935	-0.032349	0.015259	0.097961	-0.00412	-0.1976	-0.063019	0.14358	-0.010071	0.025787	-0.02243	-0.3241	0.046387	-0.18356	0.56961	-0.088654	-0.069427	-0.009003	-0.014343	-0.020905	-0.002136	0.002747	-0.048065	-0.000458	-0.003662
38.842	-0.006866	-0.038757	0.033264	-0.011444	0.007172	0.001678	0.080414	-0.001221	0.043488	0.086212	0.12222	0.004425	-0.30395	-0.087433	0.091095	-0.005646	0.028992	-0.06424	-0.36209	0.063019	-0.27054	0.61356	-0.079346	-0.063477	0.011139	-0.014038	0.070953	-0.005035	-0.18631	-0.061646	-0.001373	-0.010986
38.843	0.000305	-0.046692	0.050354	0.007172	0.012207	0.006256	0.079193	-0.007782	0.049438	0.071869	0.035706	0.011902	0.32425	0.011139	0.070343	-0.001373	0.00412	-0.041809	-0.34332	0.041962	-0.27741	0.63812	-0.085754	-0.065613	-0.007629	-0.015259	0.12054	-0.00824	-0.31845	-0.068359	0.000916	-0.010986
38.844	0.001984	-0.024719	0.031128	0.001221	0.00885	0.007629	0.071869	0.00412	0.031281	0.045776	-0.018768	0.002899	-0.34409	0.079041	0.13962	0.007172	-0.011597	-0.050354	-0.25177	0.013275	0.071564	0.6247	-0.12833	0.02533	0.019226	-0.016022	0.35355	-0.00473	-0.18173	-0.072937	-0.001221	-0.002136
38.845	-0.001221	-0.06012	-0.008698	0.006714	0.010223	0.008087	0.10086	0.005188	0.00824	0.06485	0.027008	-0.000763	-0.009003	-0.15167	0.062561	0.002899	-0.007324	-0.058289	-0.37598	-0.061646	0.24674	0.62241	-0.063171	0.072632	0.033569	-0.004578	0.55237	-0.003204	0.065308	-0.12924	-0.001221	0.002747
38.846	0.001068	-0.019379	0.000458	0.007629	0.015411	0.011749	0.15625	0.002899	-0.017242	0.062714	-0.009308	-0.002899	0.1358	-0.16693	0.075989	0.002441	-0.003052	-0.023041	-0.26123	-0.12817	0.15243	0.63187	-0.10254	-0.002747	0.007629	-0.01236	0.3122	-0.007629	0.034027	-0.14252	0.002899	-0.009766
38.847	0.007629	-0.008087	0.029755	-0.003662	0.010834	0.013275	0.22629	0.016785	-0.10132	0.036774	-0.036774	-0.000153	-0.047455	-0.34775	0.16342	0.008087	0.013428	-0.010071	-0.079346	-0.1387	0.062561	0.60288	-0.093231	0.025024	0.012512	-0.021057	0.46341	-0.003662	0.083923	-0.13428	0.000763	-0.009918
38.848	0.008545	-0.001984	0.034485	0.009308	0.012817	0.003357	0.14526	0.019379	-0.090942	0.018005	-0.060577	-0.005951	0.1297	-0.41916	0.23499	-0.002289	0.029297	-0.038605	0.31372	-0.018005	-0.04303	0.54688	-0.074158	0.02121	0.00824	-0.016785	0.47607	-0.00351	0.15045	-0.10834	0.001984	-0.004578
38.849	0.007324	-0.044403	0.096283	-0.002136	0.017242	-0.012665	0.016022	0.011139	0.011139	-0.004425	0.019989	0.000153	0.055084	-0.19318	0.20218	-0.002747	0.00946	-0.068512	0.29114	0.054016	0.10056	0.54474	-0.10452	0.044403	0.002747	-0.016785	-0.30975	-0.010376	0.15228	-0.088348	0.000763	-0.005951
38.85	0.009766	-0.034027	0.091705	-0.014343	0.018616	-0.027313	-0.14893	0.008545	0.15015	0.016785	0.072021	-0.001831	-0.012207	-0.002441	0.13138	0.00885	-0.00885	0.016022	0.25116	0.12558	0.14725	0.52567	-0.099945	0.033722	0.010986	-0.02121	-0.34637	-0.003052	0.16892	-0.036163	-0.00351	-0.00412
38.851	0.019836	-0.022736	0.004578	-0.002289	0.012665	-0.034027	-0.22217	-0.001526	0.32242	0.013428	0.076752	0.001831	-0.10178	0.011444	0.012512	-0.002136	0.011902	0.029144	0.23025	0.058746	0.051575	0.46112	-0.097961	0.013733	0.01297	-0.015717	-0.45029	-0.009155	0.12375	-0.043335	-0.002594	-0.013275
38.852	0.013733	-0.022888	-0.013123	0.001221	0.015869	-0.009308	-0.15564	-0.012817	0.42602	-0.013885	0.11597	-0.000305	-0.1889	0.2005	-0.074921	-0.005951	-0.013123	-0.016174	0.12741	0.083923	0.076752	0.34866	-0.13077	0.002747	0.00824	-0.021057	-0.63156	-0.010681	0.10529	0.032043	0.001373	-0.013123
38.853	0.007782	-0.00473	-0.10407	0.003662	0.009766	0.005188	-0.086212	-0.010223	0.34225	-0.063934	0.13596	0.010071	-0.15213	0.22964	-0.076599	-0.011597	0.010376	-0.012817	0.27435	0.036163	0.14893	0.27817	-0.10132	-0.000916	0.012207	-0.023193	-0.45349	-0.014343	0.073395	0.13901	0.001373	-0.01297
38.854	-0.002136	0.008087	0.016174	-0.000458	0.011749	0.010681	-0.023041	-0.013428	0.14435	-0.067749	0.012054	0.005035	0.36468	0.27527	-0.15808	-0.009918	0.029297	-0.036011	0.60074	-0.046539	0.14175	0.2124	-0.13855	0.045624	0.010681	-0.021057	-0.32776	-0.002594	0.060577	0.12436	-0.000153	-0.008392
38.855	-0.006256	-0.03479	0.10056	-0.003662	0.018921	0.031433	0.057983	-0.006866	0.04364	-0.05661	-0.020905	0.01297	0.36423	0.27802	0.25009	-0.016937	0.016022	-0.081787	0.55725	-0.051727	-0.012207	0.21011	-0.1442	0.010071	0.007477	-0.019226	-0.13351	-0.003967	0.019836	0.07019	0.001984	-0.010376
38.856	-0.004425	-0.063477	0.09491	0.012512	0.018616	0.018311	-0.009766	0.002899	-0.07019	-0.045624	-0.079803	0.011597	-0.10788	0.16357	0.11078	-0.012665	0.002289	-0.061798	-0.27405	-0.043182	-0.20584	0.25207	-0.12344	0.016327	0.015869	-0.014648	0.20279	0.000763	0.046539	0.042572	0.003967	-0.00061
38.857	0.007019	-0.036774	0.018311	0.003052	0.018158	0.014038	-0.014038	-0.00412	-0.039368	-0.034332	-0.036011	0.007935	-0.103	0.11795	-0.49255	0.00351	0.008545	-0.094604	-0.37598	-0.021057	-0.21637	0.29251	-0.10223	0.019531	0.003815	-0.002136	0.02533	0	0.090027	0.000763	-0.005035	0.003204
38.858	0.013123	-0.043488	0.044861	0.000458	-0.025024	0.003204	0.029755	-0.010834	-0.10452	-0.045776	0.25253	0.007324	-0.015106	0.16296	-0.54489	0.002136	0.016327	-0.0737	0.058289	0.02594	-0.042419	0.30884	-0.13931	0.10162	0.012054	-0.014038	-0.047913	-0.000916	0.052795	0.026855	-0.000305	-0.006866
38.859	-0.009003	-0.027466	0.11307	-0.009308	-0.047913	-0.042419	0.052032	-0.008087	-0.063477	-0.001068	0.32562	0.00351	-0.085907	0.159	-0.10468	0.001068	0.018616	-0.007629	-0.020599	0.087433	0.018616	0.28458	-0.11093	0.026245	-0.003052	-0.011902	-0.071259	-0.000305	0.072784	0.024872	0.001526	0.003662
38.86	-0.007477	-0.029144	0.063019	0.014191	-0.00412	-0.067596	-0.016327	-0.005951	-0.078735	0.020142	0.11215	0.008392	-0.17334	0.041809	0.058441	-0.019989	-0.011444	0.014801	0.21942	0.029297	0.050812	0.30975	-0.12863	0.002594	0.013733	-0.008698	-0.30746	-0.003662	0.15243	0.055084	-0.000763	0.002899
38.861	0.003967	-0.025787	0.061035	-0.003357	0.015106	-0.040588	-0.10834	0.000916	-0.069733	-0.016479	-0.112	0.004578	-0.007172	-0.060272	0.22247	0.007019	-0.020599	0.044861	0.77255	0.001984	-0.018921	0.25879	-0.11826	0.029449	0.013123	-0.013885	-0.20233	-0.002289	0.13809	0.009918	-0.000305	0.013123
38.862	-0.039215	-0.043793	0.040131	0.003662	0.030212	-0.051575	-0.064392	-0.002136	-0.039978	-0.016785	-0.068207	0.009613	-0.030365	0.017853	0.18768	-0.003815	-0.014496	0.001678	1.14	-0.008087	0.097198	0.242	-0.13534	0.012817	0.019531	-0.007324	0.01236	-0.005188	0.10635	-0.047455	-0.002289	0.000916
38.863	-0.03479	-0.018158	-0.053406	0.030518	0.024567	-0.027618	0.024261	-0.010529	-0.022278	0.003357	0.11948	0.002594	-0.00412	0.11704	0.013885	0.013733	0.004883	-0.037231	0.77682	-0.006561	0.18097	0.28336	-0.091858	-0.026855	0.012512	-0.014343	0.043182	-0.002441	0.17914	-0.00412	0.009155	0.001221
